<?xml version="1.0" encoding="UTF-8" standalone="no"?>
<!DOCTYPE svg PUBLIC "-//W3C//DTD SVG 1.1//EN" "http://www.w3.org/Graphics/SVG/1.1/DTD/svg11.dtd">

<svg viewBox="0 0 50 50" xmlns="http://www.w3.org/2000/svg">
<symbol id="curve" width="10" height="10" viewBox="0 0 10 10">
<path d="M7,4 C0,7 7,0 4,7" fill="none" stroke-width="0.1px" stroke="gold" />
</symbol>
<symbol id="sigil" width="20" height="20" viewBox="0 0 9 9">
<use href="#curve" x="0" y="0" transform="scale(1.5)"/>
</symbol>
<use href="#sigil" x="25" y="25" />
<use href="#sigil" x="25" y="25" transform="rotate(32.73 25 25)"/>
<use href="#sigil" x="25" y="25" transform="rotate(65.45 25 25)"/>
<use href="#sigil" x="25" y="25" transform="rotate(98.18 25 25)"/>
<use href="#sigil" x="25" y="25" transform="rotate(130.9 25 25)"/>
<use href="#sigil" x="25" y="25" transform="rotate(163.63 25 25)"/>
<use href="#sigil" x="25" y="25" transform="rotate(196.36 25 25)"/>
<use href="#sigil" x="25" y="25" transform="rotate(229.09 25 25)"/>
<use href="#sigil" x="25" y="25" transform="rotate(261.82 25 25)"/>
<use href="#sigil" x="25" y="25" transform="rotate(294.55 25 25)"/>
<use href="#sigil" x="25" y="25" transform="rotate(327.27 25 25)"/>

</svg>
