<?xml version="1.0" encoding="UTF-8" standalone="no"?>
<!DOCTYPE svg PUBLIC "-//W3C//DTD SVG 1.1//EN" "http://www.w3.org/Graphics/SVG/1.1/DTD/svg11.dtd">

<svg viewBox="0 0 50 50" xmlns="http://www.w3.org/2000/svg">
<symbol id="curve" width="10" height="10" viewBox="0 0 10 10">
<path d="M7,4 C0,7 7,0 4,7" fill="none" stroke-width="0.1px" stroke="grey" stroke-opacity="50%" />
</symbol>
<symbol id="sigil" width="20" height="20" viewBox="0 0 10 10">
<use href="#curve" x="0" y="0" transform="scale(1.5)"/>
</symbol>
<circle fill="none" stroke-width="0.5px" stroke="black" cx="25" cy="25" r="24.75"/>
<use href="#sigil" x="25" y="25" transform=" scale(1.05)" />
<use href="#sigil" x="25" y="25" transform="rotate(27.7 25 25) scale(1.05)"/>
<use href="#sigil" x="25" y="25" transform="rotate(55.4 25 25) scale(1.05)"/>
<use href="#sigil" x="25" y="25" transform="rotate(83.1 25 25) scale(1.05)"/>
<use href="#sigil" x="25" y="25" transform="rotate(110.8 25 25) scale(1.05)"/>
<use href="#sigil" x="25" y="25" transform="rotate(138.5 25 25) scale(1.05)"/>
<use href="#sigil" x="25" y="25" transform="rotate(166.2 25 25) scale(1.05)"/>
<use href="#sigil" x="25" y="25" transform="rotate(193.9 25 25) scale(1.05)"/>
<use href="#sigil" x="25" y="25" transform="rotate(221.6 25 25) scale(1.05)"/>
<use href="#sigil" x="25" y="25" transform="rotate(249.3 25 25) scale(1.05)"/>
<use href="#sigil" x="25" y="25" transform="rotate(277 25 25) scale(1.05)"/>
<use href="#sigil" x="25" y="25" transform="rotate(304.7 25 25) scale(1.05)"/>
<use href="#sigil" x="25" y="25" transform="rotate(332.3 25 25) scale(1.05)"/>


</svg>
