<?xml version="1.0" encoding="UTF-8" standalone="no"?>
<!DOCTYPE svg PUBLIC "-//W3C//DTD SVG 1.1//EN" "http://www.w3.org/Graphics/SVG/1.1/DTD/svg11.dtd">

<svg viewBox="0 0 50 50" xmlns="http://www.w3.org/2000/svg">
<symbol id="curve" width="10" height="10" viewBox="0 0 10 10">
<path d="M7,4 C0,7 7,0 4,7" fill="none" stroke-width="0.1px" stroke="gold" />
</symbol>
<symbol id="sigil" width="20" height="20" viewBox="0 0 10 10">
<use href="#curve" x="0" y="0" transform="scale(1.5)"/>
</symbol>
<use href="#sigil" x="25" y="25" />
<use href="#sigil" x="25" y="25" transform="rotate(24 25 25)"/>
<use href="#sigil" x="25" y="25" transform="rotate(48 25 25)"/>
<use href="#sigil" x="25" y="25" transform="rotate(72 25 25)"/>
<use href="#sigil" x="25" y="25" transform="rotate(96 25 25)"/>
<use href="#sigil" x="25" y="25" transform="rotate(120 25 25)"/>
<use href="#sigil" x="25" y="25" transform="rotate(144 25 25)"/>
<use href="#sigil" x="25" y="25" transform="rotate(168 25 25)"/>
<use href="#sigil" x="25" y="25" transform="rotate(192 25 25)"/>
<use href="#sigil" x="25" y="25" transform="rotate(216 25 25)"/>
<use href="#sigil" x="25" y="25" transform="rotate(240 25 25)"/>
<use href="#sigil" x="25" y="25" transform="rotate(264 25 25)"/>
<use href="#sigil" x="25" y="25" transform="rotate(288 25 25)"/>
<use href="#sigil" x="25" y="25" transform="rotate(312 25 25)"/>
<use href="#sigil" x="25" y="25" transform="rotate(336 25 25)"/>



</svg>

